<?xml version="1.0" encoding="UTF-8"?>
<svg id="Layer_1" data-name="Layer 1" xmlns="http://www.w3.org/2000/svg" viewBox="0 0 737 687">
  <defs>
    <style>
      .cls-1 {
        fill: none;
      }

      .cls-2 {
        fill: #04703d;
      }

      .cls-3 {
        fill: #f36b23;
      }
    </style>
  </defs>
  <path class="cls-2" d="m696.33,409.56v52.69l-77.19,44.53-.93.53-2.32,1.33-4.89,2.83h-.01l-107.27,61.89-22.33,12.88-69.35,40.01-.52.3-33.04,19.05-11.24,6.49-.51.29-.36.21-.35.2-13.12-7.56-31.53-18.18-.86-.5-73.93-42.66-14.88-8.58-114.04-65.79-.97-.56-1-.58-75.8-43.73v-55.11h88.52c2.87,2.69,5.79,5.32,8.78,7.88h0c2.51,2.18,5.06,4.31,7.65,6.41,1.08.88,2.17,1.75,3.26,2.61,5.75,4.53,11.65,8.87,17.71,13.02l3.45,2.31,20.64,12.7c.2.12.39.22.6.34h-75.64l2.8,1.61,25.22,14.56,26.78,15.45,83.98,48.45,10.52,6.07,100.42,57.92,1.94,1.13.38.22.33.19.15.09,104.87-60.5,1.78-1.03,39.66-23.87,49.81-28.75,21.43-12.36,33.24-19.18h-70.43c5.7-3.22,11.31-6.59,16.8-10.12,8.85-5.68,17.39-11.77,25.6-18.25.26-.21.52-.41.78-.62,3.45-2.73,6.84-5.54,10.15-8.39h0c2.98-2.58,5.91-5.2,8.78-7.89h86.48Z"/>
  <path class="cls-3" d="m620,282.86c-.3.03-.62.07-.92.1-.02,0-.05.01-.07.01-8.5,1.02-16.91,2.31-25.24,3.83-3.77.7-7.51,1.44-11.22,2.23-8.81,1.88-17.5,4.05-26.06,6.49l-24.89-11c-.05-.38-.12-.77-.17-1.15-1.1-6.5-2.58-12.87-4.41-19.07l49.4-52.67-71.98,5.84c-.28-.42-.57-.82-.86-1.23-3.73-5.24-7.75-10.24-12.07-15l21.66-68.87-62.32,36.38c-6.01-3.39-12.28-6.42-18.75-9.03l-10.38-71.42-40.3,59.89c-3.44-.22-6.91-.32-10.39-.32-.38,0-.79,0-1.17.01-3.09.02-6.16.13-9.22.32l-40.31-59.9-10.38,71.42c-6.45,2.61-12.71,5.64-18.74,9.04l-62.32-36.39,21.65,68.87c-4.64,5.12-8.97,10.54-12.94,16.23l-71.96-5.84,49.39,52.67c-1.94,6.58-3.48,13.33-4.59,20.22l-28.54,11.04c-8.59-2.45-17.32-4.63-26.18-6.52-3.71-.79-7.46-1.53-11.23-2.23-7.8-1.43-15.69-2.65-23.65-3.63,14.38-124.88,120.34-221.89,249-222.18h.58c128.82,0,235.01,96.94,249.56,221.86Z"/>
  <path class="cls-2" d="m665.56,303.2c-14.78.13-29.46,1.03-43.94,2.69-.85.09-1.69.19-2.54.29-.02,0-.05.01-.07.01-8.5,1.02-16.91,2.31-25.24,3.83-1.06.2-2.1.39-3.15.6-2.7.51-5.4,1.06-8.08,1.62-18.46,3.95-36.39,9.12-53.57,15.49-.43.15-.86.31-1.29.48-1.18.44-2.37.91-3.55,1.36-1.18.45-2.37.92-3.53,1.38-1.17.48-2.34.95-3.51,1.43-1.16.46-2.32.95-3.48,1.44-1.15.5-2.31.99-3.45,1.49-3.33,1.46-6.64,2.96-9.91,4.52-.1.05-.21.09-.31.14-2.38,1.13-4.75,2.29-7.1,3.47-1.02.51-2.04,1.03-3.08,1.57-.14.08-.28.15-.42.22-1.16.6-2.32,1.21-3.47,1.82-1.16.63-2.3,1.24-3.44,1.87-1.15.63-2.28,1.27-3.42,1.9-1.13.64-2.25,1.28-3.37,1.94-1.11.65-2.24,1.3-3.34,1.96-.99.59-1.96,1.18-2.93,1.78-1.23.74-2.45,1.52-3.67,2.29-1.08.68-2.17,1.37-3.24,2.08-.15.09-.29.19-.43.28-1.01.65-2,1.31-2.99,1.98-.99.66-1.97,1.32-2.95,2-.59.38-1.16.79-1.73,1.2-.02.02-.03.03-.06.05-.59.41-1.2.81-1.78,1.23-.19.13-.37.26-.55.39-.81.58-1.63,1.17-2.44,1.75-.42.3-.82.6-1.23.91-.38.28-.75.56-1.13.84-.14.09-.27.2-.41.3-.71.52-1.42,1.06-2.11,1.58-.7.55-1.38,1.07-2.08,1.6-1,.77-1.97,1.54-2.96,2.33-1.46,1.16-2.91,2.34-4.34,3.54-.28.22-.56.45-.84.7-2.34,1.95-4.64,3.95-6.91,5.99-.77.67-1.51,1.35-2.25,2.04-.93.84-1.83,1.68-2.74,2.55-.88.81-1.74,1.64-2.59,2.47-1.52,1.46-3.01,2.95-4.48,4.45h-.01c-1.1,1.16-2.22,2.3-3.31,3.47-.87.93-1.74,1.86-2.59,2.8-.77.84-1.53,1.68-2.28,2.53-.26.27-.49.53-.72.8-.56.63-1.13,1.27-1.67,1.92t-.01.01c-1.22,1.42-2.43,2.86-3.62,4.3-6.12,7.48-11.76,15.25-16.84,23.37-.96,1.51-1.89,3.04-2.81,4.59-.36.62-.73,1.24-1.08,1.87-1.61,2.77-3.16,5.58-4.64,8.43-1.25,2.38-2.45,4.79-3.6,7.22-.08.17-.16.34-.24.51-.15.33-.3.65-.46.99-.86,1.85-1.68,3.7-2.47,5.57-.79-1.87-1.63-3.73-2.48-5.57-.15-.34-.3-.66-.45-.99-.08-.17-.16-.34-.24-.51-1.15-2.43-2.34-4.83-3.6-7.21-1.47-2.86-3.03-5.66-4.64-8.44-.36-.63-.73-1.25-1.09-1.87-.91-1.52-1.82-3.02-2.76-4.52-5.1-8.14-10.74-15.95-16.88-23.44l-3.63-4.3s-.01,0-.01-.01c-.55-.65-1.1-1.29-1.66-1.92-.23-.27-.46-.53-.73-.8-.74-.85-1.5-1.69-2.26-2.53-.86-.94-1.72-1.87-2.59-2.8-1.1-1.17-2.21-2.31-3.32-3.46h-.01c-1.46-1.51-2.96-2.99-4.47-4.46-.86-.84-1.72-1.66-2.59-2.47-.92-.87-1.82-1.72-2.74-2.55-.75-.7-1.5-1.37-2.25-2.04-2.26-2.04-4.57-4.04-6.92-5.99-.28-.24-.55-.48-.82-.7-1.44-1.2-2.88-2.38-4.35-3.54-.98-.79-1.96-1.57-2.96-2.33-.68-.53-1.37-1.06-2.08-1.6-.7-.52-1.39-1.06-2.11-1.58-.24-.19-.49-.37-.73-.55-.26-.2-.52-.39-.79-.59-1.22-.89-2.44-1.78-3.68-2.66-.17-.14-.36-.27-.55-.39-.58-.42-1.17-.82-1.76-1.23-.02-.01-.03-.02-.06-.05-.58-.41-1.15-.81-1.73-1.2l-5.94-3.98c-.14-.09-.28-.19-.43-.28-1.08-.71-2.16-1.39-3.25-2.08-1.21-.77-2.44-1.54-3.66-2.29-.96-.59-1.95-1.18-2.93-1.78-1.11-.66-2.23-1.31-3.34-1.96-1.13-.66-2.24-1.3-3.38-1.94-1.14-.64-2.28-1.28-3.41-1.9-1.14-.63-2.29-1.24-3.44-1.87-1.16-.62-2.31-1.22-3.48-1.82-.14-.07-.28-.14-.42-.22-1.02-.53-2.05-1.06-3.08-1.57-2.36-1.18-4.72-2.34-7.1-3.47-3.38-1.6-6.78-3.15-10.23-4.65-1.14-.5-2.29-.99-3.45-1.49-1.15-.49-2.32-.98-3.47-1.44-1.17-.48-2.33-.95-3.52-1.43-1.16-.46-2.33-.93-3.53-1.38-1.17-.45-2.37-.92-3.54-1.36-.43-.16-.87-.32-1.3-.48-17.17-6.36-35.1-11.54-53.56-15.49-3.71-.79-7.46-1.53-11.23-2.23-8.32-1.52-16.75-2.81-25.25-3.83-.02,0-.05-.01-.07-.01-15.29-1.85-30.82-2.84-46.47-2.98-3.65-.05-7.3-.02-10.96.03,1.24,3.04,2.54,6.05,3.92,9.02,13.04,28.44,31.39,54.23,53.5,76.71,5.75,5.86,11.77,11.49,18.02,16.88h0c3.55,3.09,7.21,6.09,10.91,9.02,23.4,18.46,49.58,33.79,77.27,45.47,41.02,17.32,85.38,26.64,129,26.27-9.5-8.02-19.51-16.2-30.06-24.48h-.01c-25.73-20.17-54.63-40.89-86.78-61.24-36.92-23.37-72.32-42.53-104.94-58.29,31.76,11.13,69.4,27.06,109.6,50.13,38.17,21.89,76.41,49.45,101.72,70.58.6.5,1.2,1,1.78,1.49l11.21,7.78,2.83,1.96,8.28,5.73.19.13c.07.15.14.31.21.46.08.17.15.35.23.52l.5-.34.49.34c.08-.17.15-.35.23-.52.07-.15.13-.3.2-.45l.21-.14,8.26-5.73,2.83-1.96,11.21-7.78c.58-.49,1.16-.99,1.76-1.49,25.31-21.11,63.56-48.67,101.74-70.58,40.2-23.08,77.83-39,109.59-50.13-32.61,15.76-68.01,34.93-104.94,58.29-32.15,20.35-61.05,41.07-86.78,61.24-10.55,8.28-20.58,16.46-30.08,24.48,43.63.37,87.99-8.95,129-26.27,27.71-11.68,53.88-27.01,77.27-45.47,3.71-2.93,7.36-5.93,10.92-9.01h0c6.25-5.4,12.26-11.03,18-16.89,22.12-22.47,40.48-48.27,53.51-76.71,1.37-2.97,2.68-5.98,3.91-9.02-3.66-.06-7.3-.08-10.95-.03Z"/>
  <path class="cls-3" d="m503.36,311.09c0,.38,0,.78-.01,1.16-.01.99-.02,1.96-.06,2.94-1.11.51-2.23,1.03-3.34,1.56-2.38,1.13-4.75,2.29-7.1,3.47-1.02.51-2.04,1.03-3.08,1.57-.14.08-.28.15-.42.22-1.16.6-2.32,1.21-3.47,1.82-1.16.63-2.3,1.24-3.44,1.87-1.15.63-2.28,1.27-3.42,1.9-1.13.64-2.25,1.28-3.37,1.94-1.11.65-2.24,1.3-3.34,1.96-.99.59-1.96,1.18-2.93,1.78-1.23.74-2.45,1.52-3.67,2.29-1.08.68-2.17,1.37-3.24,2.08-.15.09-.29.19-.43.28-1.01.65-2,1.31-2.99,1.98-.99.66-1.97,1.32-2.95,2-.59.38-1.16.79-1.73,1.2-.02.02-.03.03-.06.05-.59.41-1.2.81-1.78,1.23-.19.13-.37.26-.55.39-1.23.88-2.46,1.76-3.67,2.66-.14.1-.29.21-.43.31-1.42-6.52-3.63-12.73-6.56-18.54-3.09-6.15-6.95-11.84-11.47-16.95-14.52-16.45-35.76-26.81-59.43-26.81-.2,0-.38,0-.58.01-23.44.16-44.45,10.49-58.84,26.8-9.15,10.34-15.64,23.09-18.38,37.18l-1.59-1.18c-.36-.28-.73-.55-1.1-.82-1.22-.89-2.44-1.78-3.68-2.66-.17-.14-.36-.27-.55-.39-.58-.42-1.17-.82-1.76-1.23-.02-.01-.03-.02-.06-.05-.58-.41-1.15-.81-1.73-1.2-.98-.67-1.97-1.33-2.95-2-1.01-.67-2-1.33-2.99-1.98-.14-.09-.28-.19-.43-.28-1.08-.71-2.16-1.39-3.25-2.08-1.21-.77-2.44-1.54-3.66-2.29-.96-.59-1.95-1.18-2.93-1.78-1.11-.66-2.23-1.31-3.34-1.96-1.13-.66-2.24-1.3-3.38-1.94-1.14-.64-2.28-1.28-3.41-1.9-1.14-.63-2.29-1.24-3.44-1.87-1.16-.62-2.31-1.22-3.48-1.82-.14-.07-.28-.14-.42-.22-1.02-.53-2.05-1.06-3.08-1.57-2.36-1.18-4.72-2.34-7.1-3.47-1.01-.48-2.03-.95-3.05-1.42-.03-1.02-.05-2.04-.06-3.08-.01-.38-.01-.78-.01-1.16,0-74.05,60.04-134.08,134.08-134.08.2,0,.38,0,.58.01,73.78.3,133.5,60.22,133.5,134.07Z"/>
  <path class="cls-3" d="m429.82,362.31c-.75.65-1.51,1.32-2.26,2-.77.67-1.51,1.35-2.25,2.04-.93.84-1.83,1.68-2.74,2.55-.88.81-1.74,1.64-2.59,2.47-1.52,1.46-3.01,2.95-4.48,4.45h-.01c-1.1,1.16-2.22,2.3-3.31,3.47-.87.93-1.74,1.86-2.59,2.8-.77.84-1.53,1.68-2.28,2.53-.26.27-.49.53-.72.8-.56.63-1.13,1.27-1.67,1.92t-.01.01c-1.22,1.42-2.43,2.86-3.62,4.3-7.27,8.87-13.85,18.18-19.65,27.95-.07.13-.14.24-.22.37-1.39.29-2.8.52-4.23.71-2.5.34-5.04.5-7.63.5-.39,0-.78,0-1.16-.02-2.97-.05-5.89-.33-8.73-.81-.31-.05-.64-.1-.95-.17l-1.57-.31c-.82-1.18-1.67-2.37-2.52-3.53-.01-.01-.02-.03-.03-.05-5.29-8.57-11.18-16.77-17.62-24.63-1.21-1.44-2.4-2.88-3.63-4.3t-.01-.01c-.55-.65-1.1-1.29-1.66-1.92-.23-.27-.46-.53-.73-.8-.74-.85-1.5-1.69-2.26-2.53-.86-.94-1.72-1.87-2.59-2.8-1.1-1.17-2.21-2.31-3.32-3.46h-.01c-1.46-1.51-2.96-2.99-4.47-4.46-.86-.84-1.72-1.66-2.59-2.47-.92-.87-1.82-1.72-2.74-2.55-.28-.26-.55-.51-.82-.75v-.29c0-23.34,13.59-43.53,33.31-53.05,1.97-.95,3.99-1.79,6.08-2.52,5.32-1.87,10.98-2.98,16.87-3.24.49-.02.96-.03,1.45-.05.38-.02.78-.02,1.17-.02,6.85,0,13.42,1.16,19.52,3.31,2.07.73,4.09,1.58,6.04,2.52,9.43,4.55,17.44,11.53,23.24,20.12,5.05,7.45,8.42,16.11,9.6,25.46.19,1.47.33,2.97.39,4.48Z"/>
  <line class="cls-1" x1="369.86" y1="660" x2="369.51" y2="659.8"/>
</svg>